Coordinates
version=1
nRows=12
nColumns=24
inDegrees=yes

Units are S.I. units (second, meters, Newtons, ...)
Angles are in degrees.

endheader
time	pelvis_tilt	pelvis_list	pelvis_rotation	pelvis_tx	pelvis_ty	pelvis_tz	hip_flexion_r	hip_adduction_r	hip_rotation_r	knee_angle_r	ankle_angle_r	subtalar_angle_r	mtp_angle_r	hip_flexion_l	hip_adduction_l	hip_rotation_l	knee_angle_l	ankle_angle_l	subtalar_angle_l	mtp_angle_l	lumbar_extension	lumbar_bending	lumbar_rotation
      2.96000000	      4.83946415	      7.48809492	     -8.75296074	     -0.58902081	      0.97728019	     -0.01565316	     -7.86242686	     -9.00531284	    -12.55368315	    -18.94171268	     16.17834388	      7.51295630	      7.27855047	     15.11069388	      7.69912198	    -23.27452981	      0.01905391	     -2.64336761	     10.90207741	     36.91524451	    -17.97672556	    -10.21038411	     14.98490967
      2.96500000	      4.94491852	      7.59044946	     -8.84225666	     -0.58371248	      0.97697084	     -0.01582476	     -8.23630420	     -9.20013025	    -12.46534294	    -19.03859444	     16.24570870	      7.43112207	      7.40467204	     15.09066726	      7.79574876	    -23.15914782	     -0.60079711	     -2.66078382	     10.11092875	     36.93726742	    -18.04145386	    -10.40329270	     14.92362362
      2.97000000	      5.06660026	      7.68814171	     -8.88651854	     -0.57835641	      0.97670938	     -0.01608806	     -8.64365890	     -9.38916350	    -12.43755465	    -19.13027593	     16.27183513	      7.35898976	      7.60733531	     15.03518563	      7.91283819	    -22.92627748	     -1.19808554	     -2.75466173	      9.24904251	     37.05675587	    -18.13125177	    -10.57777316	     14.81544522
      2.97500000	      5.17039825	      7.80429185	     -8.85194830	     -0.57286502	      0.97645490	     -0.01644345	     -9.06902031	     -9.58667256	    -12.53837379	    -19.19140076	     16.15581245	      7.31991344	      8.69898653	     14.97744105	      8.07518091	    -22.61258078	     -1.75514695	     -3.00543700	      8.34504569	     38.18926158	    -18.20126858	    -10.75141223	     14.57040712
      2.98000000	      5.27593874	      7.88503267	     -8.95714741	     -0.56757864	      0.97623785	     -0.01663462	     -9.39496215	     -9.75633134	    -12.35169028	    -19.36118516	     16.13330940	      7.10662493	      8.84053671	     14.90510547	      8.17320436	    -22.40240814	     -2.27320609	     -3.22271257	      7.57249682	     38.24383590	    -18.26874817	    -10.92727308	     14.58634437
      2.98500000	      5.36192823	      8.01600892	     -8.91066967	     -0.56208182	      0.97603037	     -0.01708224	     -9.76258505	     -9.97204957	    -12.44723346	    -19.49082635	     15.96150777	      7.01286776	      9.95317272	     14.82945173	      8.37588157	    -22.01200021	     -2.73814889	     -3.59590869	      6.65246116	     39.36298449	    -18.32088059	    -11.10711699	     14.36776888
      2.99000000	      5.44022287	      8.09656475	     -8.98080248	     -0.55678823	      0.97586922	     -0.01736171	    -10.02527173	    -10.13822124	    -12.26315037	    -19.73113952	     15.87209014	      6.77793288	     10.12674051	     14.75077603	      8.49690820	    -21.73023658	     -3.17150347	     -3.93293853	      5.92015578	     39.43787707	    -18.36516303	    -11.26791150	     14.33800217
      2.99500000	      5.52471088	      8.21741071	     -8.96881914	     -0.55135971	      0.97575014	     -0.01779614	    -10.31401963	    -10.34880539	    -12.23223486	    -19.97136574	     15.61158133	      6.55110781	     11.63446264	     14.64373008	      8.69488751	    -21.37059889	     -3.54969447	     -4.41338242	      5.07448939	     40.82679029	    -18.41799946	    -11.44424132	     14.16464130
      3.00000000	      5.58179331	      8.32618408	     -8.99245164	     -0.54602159	      0.97567341	     -0.01821122	    -10.51214256	    -10.55041305	    -12.10201549	    -20.29925767	     15.44537401	      6.31868785	     11.81226417	     14.55591512	      8.87027029	    -21.03583023	     -3.91285888	     -4.79994010	      4.39548047	     40.86990063	    -18.44587754	    -11.61326989	     14.05998827
      3.00500000	      5.59955379	      8.45256366	     -8.95276708	     -0.54064298	      0.97558609	     -0.01871334	    -10.64993993	    -10.76216450	    -12.04371549	    -20.67748716	     15.08420873	      6.01684217	     13.46123023	     14.49557129	      9.07387133	    -20.65819850	     -4.23629372	     -5.33622217	      3.67696292	     42.09259851	    -18.43447126	    -11.78198018	     13.89891456
      3.01000000	      5.61509854	      8.57902069	     -8.92020772	     -0.53528668	      0.97555249	     -0.01924879	    -10.73795607	    -10.98352020	    -11.94438452	    -21.13813399	     14.79451612	      5.76160070	     14.16822747	     14.43866590	      9.27815992	    -20.25841717	     -4.58074123	     -5.71360536	      2.98916981	     42.41941922	    -18.42505960	    -11.94697328	     13.71386413
      3.01500000	      5.69525124	      8.70483870	     -8.90244205	     -0.52992908	      0.97567369	     -0.01978422	    -10.85798547	    -11.21920633	    -11.82065518	    -21.64699920	     14.35225155	      5.40872364	     15.49424700	     14.29273951	      9.49492217	    -19.90056120	     -4.88466145	     -6.15280844	      2.32163208	     43.10458504	    -18.48789071	    -12.12150309	     13.57461086
